IKResults EF2
version=1
nRows=24
nColumns=24
inDegrees=yes

Units are S.I. units (second, meters, Newtons, ...)
If the header above contains a line with 'inDegrees', this indicates whether rotational values are in degrees (yes) or radians (no).

endheader
time	pelvis_tilt	pelvis_list	pelvis_rotation	pelvis_tx	pelvis_ty	pelvis_tz	hip_flexion_r	hip_adduction_r	hip_rotation_r	knee_angle_r	ankle_angle_r	subtalar_angle_r	mtp_angle_r	hip_flexion_l	hip_adduction_l	hip_rotation_l	knee_angle_l	ankle_angle_l	subtalar_angle_l	mtp_angle_l	lumbar_extension	lumbar_bending	lumbar_rotation
      5.03000000	      3.39090180	     -5.53662543	    -83.72929565	     -0.20774281	      0.97112344	     -1.57354944	     27.22348989	     -4.43604166	     -1.91356871	    -24.22941053	      8.17781342	    -11.00458052	      0.00000000	     -8.71821822	      8.09461042	      7.97479343	    -15.81556534	     18.08233461	     -7.81038925	      0.00000000	    -16.05349590	     -6.81942739	     -5.64858759
      5.04000000	      3.35798795	     -5.27278950	    -83.23899806	     -0.20704626	      0.96941240	     -1.56036094	     27.42725165	     -4.40758977	     -1.23071885	    -21.57775993	      8.19189842	    -11.05615316	      0.00000000	     -9.36849287	      7.90715935	      8.47446972	    -15.77440022	     18.12589622	     -7.75761185	      0.00000000	    -15.94486101	     -6.74894441	     -5.67284295
      5.05000000	      3.27640197	     -4.96723652	    -82.72446477	     -0.20622524	      0.96763885	     -1.54717587	     27.62640846	     -4.37694050	     -0.80836084	    -19.10688105	      8.70453941	    -12.51518256	      0.00000000	     -9.90166008	      7.64643864	      8.82478778	    -15.83486806	     19.16228337	     -7.14627658	      0.00000000	    -15.65211200	     -6.47062643	     -6.61788467
      5.06000000	      3.15571305	     -4.62442883	    -82.34619836	     -0.20555697	      0.96572186	     -1.53377181	     27.87250767	     -4.29976154	     -0.39899940	    -16.90737371	      8.50642425	    -13.82699361	      0.00000000	    -10.34972033	      7.38414929	      9.06286604	    -15.98752298	     19.93816222	     -6.17322346	      0.00000000	    -15.38134830	     -6.25040155	     -6.93572090
      5.07000000	      2.97953162	     -4.25900040	    -81.97098121	     -0.20495914	      0.96376362	     -1.52040011	     28.16493247	     -4.21137674	     -0.34062745	    -15.05303408	      8.54944478	    -13.89242141	      0.00000000	    -10.71680230	      7.07951784	      9.23125378	    -16.19135088	     20.00110724	     -6.14401379	      0.00000000	    -15.11764698	     -5.90361390	     -6.99004548
      5.08000000	      2.73101679	     -3.89138000	    -81.60977335	     -0.20458510	      0.96174172	     -1.50699097	     28.49022611	     -4.04522860	     -0.59577275	    -13.58344474	      8.75778875	    -14.04236338	      0.00000000	    -10.99900229	      6.68913419	      9.32059710	    -16.52125883	     20.18522341	     -6.11177285	      0.00000000	    -14.75532850	     -5.49358241	     -7.13405819
      5.09000000	      2.48877792	     -3.53879003	    -81.26433314	     -0.20437652	      0.95960813	     -1.49344736	     28.79279633	     -3.86000479	     -1.03051944	    -12.50395387	      9.14976212	    -14.26610634	      0.00000000	    -11.24743527	      6.27348150	      9.35235028	    -16.98581146	     20.48808010	     -6.02639701	      0.00000000	    -14.38054099	     -5.10521374	     -7.34579259
      5.10000000	      2.25875611	     -3.20408724	    -80.99920033	     -0.20420246	      0.95740455	     -1.47949111	     29.02249958	     -3.64847867	     -1.50017030	    -11.71620450	      9.58138245	    -14.48137175	      0.00000000	    -11.51878620	      5.92170645	      9.40309993	    -17.44314087	     20.84945675	     -5.94229826	      0.00000000	    -14.02628528	     -4.77341766	     -7.54871609
      5.11000000	      2.07170010	     -2.90060713	    -80.79450199	     -0.20410567	      0.95516391	     -1.46536520	     29.19694383	     -3.43699637	     -1.86791894	    -11.26775324	      9.69060379	    -14.52942486	      0.00000000	    -11.79108574	      5.60062941	      9.34347463	    -18.01912598	     20.94181766	     -5.91586099	      0.00000000	    -13.89620842	     -4.68835098	     -7.59120098
      5.12000000	      1.91796181	     -2.56776369	    -80.63372769	     -0.20402664	      0.95281900	     -1.45110693	     29.39636400	     -3.21446826	     -1.86048322	    -11.24754720	     10.63428378	    -14.58456537	      0.00000000	    -11.99547500	      5.37684291	      9.43104966	    -18.64152111	     21.75968300	     -5.64952863	      0.00000000	    -13.41861244	     -4.43046660	     -7.98506598
      5.13000000	      1.77413433	     -2.32465337	    -80.51747896	     -0.20414594	      0.95062530	     -1.43664861	     29.45008083	     -2.92457288	     -1.56810987	    -11.57826125	     10.69803432	    -14.46121379	      0.00000000	    -12.27312982	      5.10254556	      9.37859318	    -19.35821585	     21.76552427	     -5.54934052	      0.00000000	    -13.18807032	     -4.12909348	     -7.98433048
      5.14000000	      1.64835579	     -2.05754681	    -80.48166233	     -0.20416183	      0.94842025	     -1.42193392	     29.49290701	     -2.60735640	     -1.06308181	    -12.23383094	     11.74003981	    -12.56379734	      0.00000000	    -12.50243564	      4.91003477	      9.37266971	    -20.12675580	     21.74576978	     -4.76197524	      0.00000000	    -12.85232682	     -3.99908141	     -7.89939907
      5.15000000	      1.58827282	     -1.89229597	    -80.42971792	     -0.20436070	      0.94638883	     -1.40718029	     29.33991892	     -2.28191542	     -0.27378598	    -13.11920210	     11.77485674	    -12.53010980	      0.00000000	    -12.79328897	      4.76656401	      9.47432114	    -20.97585468	     21.74292077	     -4.77083501	      0.00000000	    -12.78248980	     -3.84878125	     -7.91278169
      5.16000000	      1.51370099	     -1.72614326	    -80.43650131	     -0.20443613	      0.94445145	     -1.39197994	     29.08146592	     -1.88952720	      0.63842500	    -14.14952190	     12.65889035	    -12.28818923	      0.00000000	    -13.07930995	      4.63692001	      9.52548549	    -21.82742831	     21.27563527	     -4.96850702	      0.00000000	    -12.45065036	     -3.59959040	     -7.96756930
      5.17000000	      1.35767458	     -1.53769152	    -80.43283396	     -0.20469702	      0.94273839	     -1.37693416	     28.79592365	     -1.36088788	      1.58217308	    -15.07454260	     12.70107638	    -12.27579224	      0.00000000	    -13.20270555	      4.40772687	      9.49442337	    -22.85696757	     21.16208190	     -4.97860128	      0.00000000	    -12.26717798	     -3.29591770	     -7.96756164
      5.18000000	      1.12336049	     -1.26512255	    -80.42381441	     -0.20512816	      0.94142238	     -1.36206793	     28.54853606	     -0.76225517	      2.39755967	    -15.03678821	     11.85844507	    -12.81149214	      0.00000000	    -13.05504878	      4.10440076	      9.55537976	    -24.09761248	     19.84593073	     -4.90650312	      0.00000000	    -11.90475957	     -2.96166857	     -7.89903798
      5.19000000	      0.76076391	     -0.92437810	    -80.46694029	     -0.20578506	      0.94042051	     -1.34724731	     28.23467498	     -0.00754930	      3.56501624	    -14.10767800	      7.70768288	    -16.80948717	      0.00000000	    -12.70011460	      3.65715181	      9.37384990	    -25.45801125	     18.90326805	     -5.18734825	      0.00000000	    -11.55502920	     -2.44737385	     -7.76529356
      5.20000000	      0.37614992	     -0.58628133	    -80.53405783	     -0.20653607	      0.93988086	     -1.33226517	     27.67407786	      0.70114779	      4.76440194	    -13.30315917	      5.59168840	    -17.23012426	      0.00000000	    -12.22928887	      3.19867806	      9.17577040	    -26.93772226	     17.45802593	     -4.70429548	      0.00000000	    -11.07498016	     -2.01368205	     -7.57282364
      5.21000000	     -0.11522401	     -0.31376983	    -80.62826996	     -0.20735482	      0.93983892	     -1.31693246	     27.13150344	      1.55913450	      6.08465219	    -13.26459666	      2.46774982	    -21.56306971	      0.00000000	    -11.70548945	      2.58953751	      8.82174862	    -28.54307780	     15.99818103	     -4.65648112	      0.00000000	    -10.76427163	     -1.36279364	     -7.34392460
      5.22000000	     -0.74282877	     -0.12074298	    -80.72951762	     -0.20839021	      0.94027244	     -1.30136784	     26.79131937	      2.50767176	      6.77082218	    -13.57764316	      1.29295809	    -21.92372814	      0.00000000	    -11.09001911	      1.79283891	      8.30052671	    -30.33213342	     14.06172916	     -3.93847889	      0.00000000	    -10.39327237	     -0.63089580	     -7.05393255
      5.23000000	     -1.37335364	     -0.08431239	    -80.86895027	     -0.20922585	      0.94119559	     -1.28544803	     26.40147354	      3.34452588	      6.49128956	    -13.99856950	     -0.08911315	    -22.47935643	      0.00000000	    -10.50113174	      0.95767311	      7.64530561	    -32.26758400	     11.76008229	     -3.28284493	      0.00000000	    -10.17903498	      0.15417399	     -6.72100122
      5.24000000	     -1.99183315	     -0.15648342	    -81.08340949	     -0.21018492	      0.94253884	     -1.26933509	     25.82190199	      4.18573438	      6.07235131	    -14.50983741	     -1.09430827	    -22.96056060	      0.00000000	     -9.81622934	      0.07988315	      6.78927843	    -34.47413287	      9.26093386	     -2.62623826	      0.00000000	    -10.08578045	      0.94455260	     -6.35093636
      5.25000000	     -2.55303541	     -0.25465156	    -81.35835077	     -0.21124413	      0.94394686	     -1.25327568	     25.18025580	      4.99176246	      5.77473069	    -15.05596430	     -1.86994378	    -23.30322273	      0.00000000	     -8.89002552	     -0.79897070	      5.76654664	    -37.08391741	      6.49843562	     -1.89143754	      0.00000000	    -10.01567063	      1.66990498	     -5.94964543
      5.26000000	     -3.04463258	     -0.34318259	    -81.65247037	     -0.21235909	      0.94530931	     -1.23752953	     24.58096265	      5.69083109	      5.18516915	    -15.63064469	     -2.42901847	    -23.18920046	      0.00000000	     -7.64632926	     -1.64642949	      4.67096733	    -40.13471960	      3.62168700	     -1.18283462	      0.00000000	     -9.97504029	      2.30907902	     -5.52364901
